# xmcd
#
# Track frame offsets: 
#        150
#        15090
#        35701
#        80407
#        98906
#        114051
#        131827
#        149470
#        170116
#        191376
#        209193
#        225575
#        241115
#        259528
#        278005
#        297654
#
# Disc length: 4258 seconds
#
# Revision: 0
# Processed by: cddbd v1.5.2PL0 Copyright (c) Steve Scherf et al.
# Submitted via: ExactAudioCopyFreeDBPlugin 1.0
#
DISCID=e210a010
DTITLE=Paul Carrack - 2000-2020 The Independent Years
DYEAR=2020
DGENRE=Soul
TTITLE0=Into The Mystic (Royal Albert Hall, London, 2001)
TTITLE1=Love Will Keep Us Alive (Shepherd's Bush Empire, London, 2000)
TTITLE2=Bet Your Life (Symphony Hall, Birmingham, 2017)
TTITLE3=Tempted (Symphony Hall, Birmingham, 2017)
TTITLE4=You Don't Know Me (Symphony Hall, Birmingham, 2017)
TTITLE5=Georgia (Royal Albert Hall, London, 2017)
TTITLE6=I Think It's Going To Rain Today (London Palladium, 2014)
TTITLE7=If You'd Ever Needed Someone (Shepherd's Bush Empire, London, 
TTITLE7=2000)
TTITLE8=It Ain't Over (Buxton Opera House, 2004)
TTITLE9=If I Were You (Liverpool Philharmonic Hall, 2004)
TTITLE10=That's All That Matters To Me (Acoustic Trio, 2018)
TTITLE11=Dig Deep (Acoustic Trio, 2018)
TTITLE12=Don't Let The Sun Catch You Crying (Symphony Hall, Birmingham
TTITLE12=, 2017)
TTITLE13=Don't Shed A Tear (Bonn, Germany, 2005)
TTITLE14=Eyes Of Blue (Shepherd's Bush Empire, London, 2000)
TTITLE15=For Once In Our Lives (Liverpool Philharmonic Hall, 2004)
EXTD=
EXTT0=
EXTT1=
EXTT2=
EXTT3=
EXTT4=
EXTT5=
EXTT6=
EXTT7=
EXTT8=
EXTT9=
EXTT10=
EXTT11=
EXTT12=
EXTT13=
EXTT14=
EXTT15=
PLAYORDER=
